<svg xmlns="http://www.w3.org/2000/svg" xmlns:xlink="http://www.w3.org/1999/xlink" width="140.713" height="146.321" viewBox="0 0 140.713 146.321">
  <defs>
    <filter id="Ellipse_10" x="49.414" y="30.558" width="88.816" height="88.816" filterUnits="userSpaceOnUse">
      <feOffset dy="1" input="SourceAlpha"/>
      <feGaussianBlur stdDeviation="1.5" result="blur"/>
      <feFlood flood-opacity="0.161"/>
      <feComposite operator="in" in2="blur"/>
      <feComposite in="SourceGraphic"/>
    </filter>
  </defs>
  <g id="no_video_camera_2_Converted_" data-name="no_video_camera_2 [Converted]" transform="translate(-944.189 -723.4)">
    <path id="Path_24861" data-name="Path 24861" d="M1083.088,1093.037c-3.023-2.769-9.524-3.272-18.284-1.859,12.219-10.954,17.435-20.724,12.217-25.5-5.9-5.4-23.567-2.983-44.4,5.093,3.2-4.277,4.025-7.729,1.857-9.715-5.742-5.26-30.341,1.76-54.94,15.679s-39.887,29.469-34.144,34.729c3.362,3.08,13.187,1.95,25.69-2.308-8.337,8.82-11.333,16.373-6.943,20.394,2.292,2.1,6.36,3.018,11.7,2.882-21.537,15.707-32.766,30.268-26.312,36.18,8.618,7.894,45.5-2.624,82.384-23.493S1091.706,1100.932,1083.088,1093.037Z" transform="translate(0 -322.378)" fill="#f2f2f2"/>
    <path id="Path_24862" data-name="Path 24862" d="M1771.387,828.7c-2.116-.025-4.234-.029-6.352-.025a.893.893,0,0,0-.892.893v.025a3.791,3.791,0,0,1-3.791,3.791h-28.1a3.791,3.791,0,0,1-3.791-3.791h0a.893.893,0,0,0-.893-.893h-5.127c-.411,0-.823,0-1.234,0a6.745,6.745,0,0,0-6.554,5.407,15.566,15.566,0,0,0-.121,2.916v121.4a11,11,0,0,0,.355,3.633,6.748,6.748,0,0,0,6.342,4.519c.485.005.971,0,1.456,0H1771.4a6.749,6.749,0,0,0,6.552-5.407,8.374,8.374,0,0,0,.119-1.6V835.687A6.788,6.788,0,0,0,1771.387,828.7Z" transform="translate(-739.309 -101.036)" fill="#fff"/>
    <path id="Path_24863" data-name="Path 24863" d="M1699.444,752.7H1648.8a9.486,9.486,0,0,0-9.486,9.485V886.812a9.486,9.486,0,0,0,9.486,9.485h50.649a9.485,9.485,0,0,0,9.485-9.485V762.185A9.486,9.486,0,0,0,1699.444,752.7Zm6.581,134.293a6.853,6.853,0,0,1-6.853,6.853h-50.2a6.853,6.853,0,0,1-6.853-6.853V762.458a6.853,6.853,0,0,1,6.853-6.853h50.195a6.853,6.853,0,0,1,6.853,6.853Z" transform="translate(-667.126 -28.12)" fill="#727272"/>
    <path id="Path_24864" data-name="Path 24864" d="M3103.631,752.7h-1.211a9.487,9.487,0,0,1,9.487,9.485V886.812a9.485,9.485,0,0,1-9.485,9.485h1.21a9.485,9.485,0,0,0,9.485-9.485V762.185A9.489,9.489,0,0,0,3103.631,752.7Z" transform="translate(-2071.313 -28.12)" fill="#c6c4c4"/>
    <path id="Path_24865" data-name="Path 24865" d="M1640.521,886.812V762.185a9.485,9.485,0,0,1,9.485-9.486h-1.21a9.486,9.486,0,0,0-9.486,9.486V886.812a9.485,9.485,0,0,0,9.486,9.485h1.21A9.485,9.485,0,0,1,1640.521,886.812Z" transform="translate(-667.126 -28.12)" fill="#c6c4c4"/>
    <path id="Path_24866" data-name="Path 24866" d="M1671.268,723.4h-50.556A10.713,10.713,0,0,0,1610,734.113v124.9a10.713,10.713,0,0,0,10.713,10.713h50.556a10.713,10.713,0,0,0,10.713-10.713v-124.9A10.713,10.713,0,0,0,1671.268,723.4Zm9.532,135.292a9.486,9.486,0,0,1-9.486,9.486h-50.649a9.486,9.486,0,0,1-9.486-9.486V734.066a9.486,9.486,0,0,1,9.486-9.486h50.649a9.486,9.486,0,0,1,9.485,9.486Z" transform="translate(-638.997)" fill="#a5a5a5"/>
    <path id="Path_24867" data-name="Path 24867" d="M1770.038,932.955v-96.29c0-3.105.008-6.21,0-9.315a7.136,7.136,0,0,0-7.039-7.228c-1.537-.018-3.075,0-4.612,0h-44.5c-.483,0-.975-.016-1.46.01a7.1,7.1,0,0,0-6.224,4.6,10.7,10.7,0,0,0-.428,3.836V950.467a9.184,9.184,0,0,0,.815,4.515,7.118,7.118,0,0,0,6.228,3.745c.458.006.916,0,1.373,0H1763a7.142,7.142,0,0,0,7.035-7.267c0-1.047,0-2.1,0-3.146Zm-.362-102.22V951.357a8.374,8.374,0,0,1-.119,1.6,6.747,6.747,0,0,1-6.552,5.407h-48.716c-.483,0-.971.005-1.456,0a6.749,6.749,0,0,1-6.341-4.519,10.992,10.992,0,0,1-.355-3.633v-121.4a15.416,15.416,0,0,1,.121-2.916,6.744,6.744,0,0,1,6.554-5.407c.411,0,.823,0,1.234,0h5.127a.893.893,0,0,1,.893.893h0a3.791,3.791,0,0,0,3.791,3.791h28.1a3.791,3.791,0,0,0,3.791-3.791v-.025a.893.893,0,0,1,.892-.893c2.118,0,4.235,0,6.352.025a6.789,6.789,0,0,1,6.685,6.984Z" transform="translate(-730.912 -92.819)" fill="#494949"/>
    <path id="Path_24868" data-name="Path 24868" d="M1602.975,1248.48a.59.59,0,0,0-.295.511v3.662a.59.59,0,0,0,.295.51Z" transform="translate(-631.972 -503.933)" fill="#3d3d3d"/>
    <path id="Path_24869" data-name="Path 24869" d="M1604.414,1475.88a.665.665,0,0,0-.234.507v9.442a.664.664,0,0,0,.234.507Z" transform="translate(-633.411 -722.175)" fill="#3d3d3d"/>
    <circle id="Ellipse_9" data-name="Ellipse 9" cx="45.149" cy="45.149" r="45.149" transform="translate(992.057 751.412)" fill="#fff"/>
    <g transform="matrix(1, 0, 0, 1, 944.19, 723.4)" filter="url(#Ellipse_10)">
      <circle id="Ellipse_10-2" data-name="Ellipse 10" cx="39.908" cy="39.908" r="39.908" transform="translate(53.91 34.06)" fill="#d0d3dd"/>
    </g>
    <circle id="Ellipse_11" data-name="Ellipse 11" cx="39.908" cy="39.908" r="39.908" transform="translate(997.298 756.652)" fill="#9fbad5"/>
    <path id="Path_24870" data-name="Path 24870" d="M2731.879,2263l-8.377,5.276-5.034-5.276-32.628,21.5,4.5,25.09a39.927,39.927,0,0,0,57.871-29.67Z" transform="translate(-1671.51 -1477.595)" fill="#9fbad5"/>
    <rect id="Rectangle_6770" data-name="Rectangle 6770" width="33.89" height="25.635" rx="5" transform="translate(1013.967 783.743)" fill="#fff"/>
    <path id="Path_24871" data-name="Path 24871" d="M2731.252,2244.88a4.326,4.326,0,0,1,.932,2.688v16.945a4.345,4.345,0,0,1-4.344,4.345h-25.2a4.324,4.324,0,0,1-2.689-.932,4.337,4.337,0,0,0,3.413,1.656h25.2a4.345,4.345,0,0,0,4.345-4.345v-16.944A4.336,4.336,0,0,0,2731.252,2244.88Z" transform="translate(-1685.052 -1460.205)" fill="#d0d3dd"/>
    <path id="Path_24872" data-name="Path 24872" d="M3572.27,2262.688v7.817a2.109,2.109,0,0,0,.9,1.726l8.157,5.735a.932.932,0,0,0,1.36-.829v-21.083a.933.933,0,0,0-1.36-.829l-8.158,5.735A2.11,2.11,0,0,0,3572.27,2262.688Z" transform="translate(-2522.24 -1470.035)" fill="#fff"/>
    <path id="Path_24873" data-name="Path 24873" d="M3589.293,2255.6a.968.968,0,0,1,.019.189v21.08a.933.933,0,0,1-1.36.829l-8.021-5.638a2.1,2.1,0,0,0,.588.628l8.158,5.735a.932.932,0,0,0,1.36-.829v-21.082A.931.931,0,0,0,3589.293,2255.6Z" transform="translate(-2529.592 -1470.494)" fill="#d0d3dd"/>
    <path id="Path_24874" data-name="Path 24874" d="M2721.911,2010.84l.271.271.77.77,1.223,1.223,1.619,1.619,1.96,1.96,2.234,2.233,2.477,2.477,2.654,2.654,2.776,2.776,2.83,2.83,2.859,2.857,2.815,2.816,2.719,2.721,2.557,2.557,2.365,2.365,2.1,2.1,1.782,1.782,1.423,1.424,1,1,.521.521.064.064a2,2,0,0,0,1.367.566,1.966,1.966,0,0,0,1.367-.566,1.945,1.945,0,0,0,.566-1.367,2.011,2.011,0,0,0-.566-1.367l-.271-.271-.77-.77-1.225-1.223-1.619-1.619-1.96-1.96-2.234-2.234-2.477-2.477-2.654-2.653-2.776-2.776-2.83-2.83-2.857-2.857-2.816-2.816-2.719-2.719-2.557-2.557L2731.54,2015l-2.1-2.1-1.782-1.783-1.423-1.423-1-1-.521-.521-.065-.064a2,2,0,0,0-1.367-.566,1.969,1.969,0,0,0-1.367.566,1.948,1.948,0,0,0-.566,1.367A2.011,2.011,0,0,0,2721.911,2010.84Z" transform="translate(-1705.583 -1232.424)" fill="#f2f2f2"/>
    <circle id="Ellipse_14" data-name="Ellipse 14" cx="21.91" cy="21.91" r="21.91" transform="translate(976.045 736.948)" fill="#fff"/>
    <circle id="Ellipse_15" data-name="Ellipse 15" cx="18.408" cy="18.408" r="18.408" transform="translate(980.545 740.448)" fill="#d0d3dd"/>
    <g id="Group_43766" data-name="Group 43766" transform="translate(-1 -1)">
      <circle id="Ellipse_13" data-name="Ellipse 13" cx="18.408" cy="18.408" r="18.408" transform="translate(981.045 740.948)" fill="#9fbad5"/>
      <g id="Group_43765" data-name="Group 43765" transform="translate(0.478 0.085)">
        <g id="Group_43764" data-name="Group 43764" transform="translate(509.178 581.215)">
          <rect id="Rectangle_6772" data-name="Rectangle 6772" width="6.008" height="11.766" rx="3.004" transform="translate(486.773 168.648)" fill="#fff"/>
          <path id="Path_24885" data-name="Path 24885" d="M2883.591,2378.89v-1.546a.686.686,0,0,0-.2-.471.666.666,0,0,0-1.137.471v1.861a5.64,5.64,0,0,1-.035.648,5.143,5.143,0,0,1-.308,1.131,5.03,5.03,0,0,1-.556.953,4.826,4.826,0,0,1-.737.739,4.594,4.594,0,0,1-.862.505,3.723,3.723,0,0,1-2.9,0,4.609,4.609,0,0,1-.862-.505,4.834,4.834,0,0,1-.737-.738,5.027,5.027,0,0,1-.556-.954,5.168,5.168,0,0,1-.308-1.127,8.865,8.865,0,0,1-.036-.99v-1.523a.686.686,0,0,0-.2-.471.666.666,0,0,0-1.137.471v1.184a10.978,10.978,0,0,0,.043,1.391,5.687,5.687,0,0,0,.848,2.416,5.515,5.515,0,0,0,1.755,1.727,5.092,5.092,0,0,0,1.969.692v2.393h-1.727c-.258,0-.515,0-.773,0h-.011a.687.687,0,0,0-.471.2.666.666,0,0,0,.471,1.137h5.571c.258,0,.515,0,.773,0h.011a.687.687,0,0,0,.471-.2.666.666,0,0,0-.471-1.137h-2.511v-2.391a5.384,5.384,0,0,0,1.508-.448,5.268,5.268,0,0,0,1.041-.658,4.763,4.763,0,0,0,.771-.763,5.657,5.657,0,0,0,.686-1.05,5.818,5.818,0,0,0,.444-1.206,6,6,0,0,0,.165-1.323C2883.592,2379.168,2883.591,2379.029,2883.591,2378.89Z" transform="translate(-2388.533 -2201.842)" fill="#fff"/>
          <path id="Path_24886" data-name="Path 24886" d="M3095.309,1984.45a2.993,2.993,0,0,1,.746,1.981v5.759a3,3,0,0,1-3,3h0a2.993,2.993,0,0,1-1.981-.746,3,3,0,0,0,2.258,1.023h0a3,3,0,0,0,3-3v-5.759A3,3,0,0,0,3095.309,1984.45Z" transform="translate(-2603.551 -1815.056)" fill="#d0d3dd"/>
          <path id="Path_24887" data-name="Path 24887" d="M2982.15,2842a5.389,5.389,0,0,0,1.135.929,5.066,5.066,0,0,0,1.691.647v-.232a5.1,5.1,0,0,1-1.969-.692A5.329,5.329,0,0,1,2982.15,2842Z" transform="translate(-2496.142 -2660.708)" fill="#d0d3dd"/>
          <path id="Path_24889" data-name="Path 24889" d="M3286.732,2384.474v-1.546a.657.657,0,0,0-.356-.588.681.681,0,0,1,.079.311v1.546c0,.139,0,.277,0,.416a6.012,6.012,0,0,1-.165,1.323,5.833,5.833,0,0,1-.444,1.206,5.669,5.669,0,0,1-.686,1.05,4.764,4.764,0,0,1-.772.763,5.242,5.242,0,0,1-1.04.658,5.385,5.385,0,0,1-1.508.45v2.39h.278v-2.113a5.388,5.388,0,0,0,1.508-.448,5.257,5.257,0,0,0,1.041-.658,4.774,4.774,0,0,0,.772-.763,5.669,5.669,0,0,0,.686-1.05,5.831,5.831,0,0,0,.444-1.206,6.012,6.012,0,0,0,.165-1.323C3286.734,2384.752,3286.732,2384.613,3286.732,2384.474Z" transform="translate(-2791.675 -2207.426)" fill="#d0d3dd"/>
          <path id="Path_24891" data-name="Path 24891" d="M2721.539,2008.677l.093.093.266.265.421.421.558.558.675.675.77.769.853.853.914.914.956.956.975.975.985.984.97.97.937.937.881.881.814.815.725.725.614.614.49.49.344.344.179.18.022.022a.688.688,0,0,0,.471.2.666.666,0,0,0,.666-.666.693.693,0,0,0-.2-.471l-.093-.093-.265-.265-.422-.421-.558-.558-.675-.675-.77-.77-.853-.853-.914-.914-.956-.956-.975-.975-.984-.984-.97-.97-.937-.937-.881-.881-.814-.815-.725-.725-.614-.614-.49-.49-.344-.344-.179-.18-.022-.022a.687.687,0,0,0-.471-.2.677.677,0,0,0-.471.2.669.669,0,0,0-.2.471A.691.691,0,0,0,2721.539,2008.677Z" transform="translate(-2238.955 -1837.826)" fill="#f2f2f2"/>
        </g>
      </g>
    </g>
  </g>
</svg>
